<?xml version="1.0" encoding="utf-8"?>
<!-- Generator: Adobe Illustrator 17.0.0, SVG Export Plug-In . SVG Version: 6.00 Build 0)  -->
<!DOCTYPE svg PUBLIC "-//W3C//DTD SVG 1.1//EN" "http://www.w3.org/Graphics/SVG/1.1/DTD/svg11.dtd">
<svg version="1.1" id="Слой_1" xmlns="http://www.w3.org/2000/svg" xmlns:xlink="http://www.w3.org/1999/xlink" x="0px" y="0px"
	 width="475.483px" height="475.483px" viewBox="187.519 0 475.483 475.483" enable-background="new 187.519 0 475.483 475.483"
	 xml:space="preserve">
<path fill="#747474" d="M218.06,475.483l195.394-195.406c26.113,19.748,58.522,31.601,93.718,31.601
	c85.933,0,155.83-69.909,155.83-155.83C663.002,69.915,593.105,0,507.172,0c-85.933,0-155.86,69.915-155.86,155.848
	c0,35.166,11.853,67.563,31.607,93.657l-195.4,195.443L218.06,475.483z M394.489,155.842c0-62.13,50.553-112.664,112.683-112.664
	c62.117,0,112.652,50.534,112.652,112.664c0,62.118-50.541,112.652-112.652,112.652C445.042,268.494,394.489,217.96,394.489,155.842
	z"/>
</svg>
