<?xml version="1.0" encoding="utf-8"?>
<!-- Generator: Adobe Illustrator 17.0.0, SVG Export Plug-In . SVG Version: 6.00 Build 0)  -->
<!DOCTYPE svg PUBLIC "-//W3C//DTD SVG 1.1//EN" "http://www.w3.org/Graphics/SVG/1.1/DTD/svg11.dtd">
<svg version="1.1" id="Слой_1" xmlns="http://www.w3.org/2000/svg" xmlns:xlink="http://www.w3.org/1999/xlink" x="0px" y="0px"
	 width="594.681px" height="202.816px" viewBox="0 0 594.681 202.816" enable-background="new 0 0 594.681 202.816"
	 xml:space="preserve">
<g>
	<path fill="#231F20" d="M137.767,0.001v109.196c0,32.61-20.465,55.385-49.767,55.385s-49.766-22.775-49.766-55.385V0.001H0v109.196
		c0,53.372,37.832,93.62,88,93.62c50.169,0,88.001-40.248,88.001-93.62V0.001H137.767z"/>
	<polygon fill="#2AAAE1" points="121.626,0 69.11,0 121.626,52.515 	"/>
	<g>
		<path fill="#231F20" d="M285.376,105.398c0,8.406-2.019,14.989-5.998,19.561c-4.336,4.905-10.943,7.393-19.639,7.393
			c-17.251,0-25.637-8.816-25.637-26.954V54.29h-5.891v52.954c0,9.647,2.762,17.18,8.199,22.378
			c5.51,5.426,13.359,8.177,23.328,8.177c9.887,0,17.734-2.75,23.328-8.177c5.441-5.356,8.199-12.885,8.199-22.378V54.29h-5.891
			V105.398z"/>
		<path fill="#231F20" d="M333.811,54.29H305.41v81.846h6.245V99.322h21.877c5.996,0,10.454-0.267,13.245-0.794
			c4.965-0.921,8.982-2.803,11.947-5.6c4.429-4.255,6.675-9.81,6.675-16.511C365.399,61.734,354.771,54.29,333.811,54.29z
			 M311.655,59.736h19.405c6.108,0,10.601,0.219,13.363,0.653c9.914,1.476,14.732,6.61,14.732,15.695
			c0,8.104-2.94,13.26-8.996,15.768c-3.143,1.343-9.609,2.023-19.216,2.023h-19.287V59.736z"/>
		<path fill="#231F20" d="M433.19,99.048l0.01-1.069h-5.785v1.06c0,7.613-1.381,13.89-4.112,18.673
			c-2.561,4.675-6.425,8.452-11.504,11.233c-4.452,2.555-9.193,3.851-14.088,3.851c-5.82,0-10.688-1.839-14.456-5.45
			c-3.702-3.685-5.58-8.349-5.58-13.864c0-4.552,2.164-8.953,6.445-13.091c3.28-3.278,8.706-6.439,16.119-9.397
			c11.854-4.659,17.862-11.622,17.862-20.697c0-4.94-1.609-8.894-4.783-11.75c-3.141-2.825-7.375-4.258-12.587-4.258
			c-5.029,0-9.307,1.384-12.738,4.132c-3.543,3.008-5.34,7.272-5.34,12.673c0,3.114,1.387,6.467,4.104,9.939
			c2.174,2.978,4.505,4.931,6.957,5.837c-14.262,6.025-21.637,15.018-21.933,26.78c-0.166,7.315,2.414,13.373,7.667,18.007
			c4.969,4.369,11.471,6.584,19.324,6.584c9.588,0,18.148-4.141,25.459-12.31l8.829,10.131h7.619l-12.905-15.065
			C431.291,115.056,433.113,107.676,433.19,99.048z M400.188,59.736c3.565,0,6.501,0.993,8.729,2.95
			c2.215,1.954,3.294,4.522,3.294,7.853c0,2.983-1.282,5.671-3.934,8.233c-2.23,2.233-4.288,3.397-6.282,3.477
			c-0.886,0.168-1.344,0.203-1.572,0.203c-3.375,0-6.185-1.532-8.595-4.695c-2.039-2.604-3.075-5.293-3.075-7.994
			c0-3.027,1.054-5.393,3.22-7.231C394.163,60.677,396.927,59.736,400.188,59.736z"/>
		<path fill="#231F20" d="M494.731,58.266c-5.536-2.639-14.464-3.976-26.534-3.976h-19.668v81.846h19.668
			c11.769,0,20.689-1.335,26.524-3.972c12.325-5.703,18.576-18.117,18.576-36.895C513.297,76.797,507.054,64.35,494.731,58.266z
			 M469.182,130.689h-14.664V59.736h14.664c3.262,0,6.165,0.074,8.628,0.219c2.44,0.147,4.529,0.368,6.195,0.652
			c5.361,0.999,9.718,2.938,12.942,5.759c6.876,6.129,10.361,15.833,10.361,28.845c0,15.998-4.859,26.626-14.436,31.587
			C487.851,129.38,479.879,130.689,469.182,130.689z"/>
		<path fill="#231F20" d="M585.98,65.219c-6.503-8.429-16.05-12.704-28.373-12.704c-12.251,0-21.761,4.313-28.266,12.823
			c-5.77,7.623-8.697,17.692-8.697,29.93c0,12.389,2.929,22.462,8.703,29.937c6.426,8.357,15.933,12.594,28.26,12.594
			c12.323,0,21.868-4.235,28.373-12.593c5.774-7.478,8.701-17.551,8.701-29.938C594.681,82.958,591.756,72.851,585.98,65.219z
			 M557.607,132.352c-10.466,0-18.484-3.732-23.83-11.092c-4.74-6.569-7.142-15.333-7.142-26.048c0-10.716,2.403-19.479,7.14-26.043
			c5.423-7.437,13.441-11.208,23.832-11.208c10.389,0,18.409,3.77,23.834,11.209c4.811,6.573,7.252,15.334,7.252,26.042
			c0,10.782-2.403,19.544-7.14,26.046C576.203,128.619,568.147,132.352,557.607,132.352z"/>
	</g>
</g>
</svg>
