<?xml version="1.0" encoding="utf-8"?>
<!-- Generator: Adobe Illustrator 17.0.0, SVG Export Plug-In . SVG Version: 6.00 Build 0)  -->
<!DOCTYPE svg PUBLIC "-//W3C//DTD SVG 1.1//EN" "http://www.w3.org/Graphics/SVG/1.1/DTD/svg11.dtd">
<svg version="1.1" id="Capa_1" xmlns="http://www.w3.org/2000/svg" xmlns:xlink="http://www.w3.org/1999/xlink" x="0px" y="0px"
	 width="496.589px" height="786.116px" viewBox="0 293.884 496.589 786.116" enable-background="new 0 293.884 496.589 786.116"
	 xml:space="preserve">
<g>
	<g>
		<path fill="#010002" d="M290.426,1030.072l0.009-138.243c-0.055-27.476-23.276-49.857-51.77-49.857h-69.638
			c-0.981-3.415-1.993-6.959-3.044-10.697c-9.804-34.172-23.203-80.969-23.181-144.338c-0.002-63.521,13.423-110.389,23.21-144.61
			c1.036-3.63,2.048-7.107,2.965-10.458l46.711,0.031l22.991-0.015c28.543,0,51.733-22.399,51.74-49.888l0.015-138.254
			c0-27.465-23.228-49.857-51.77-49.857l-39.072,0.11l0.007,1.067c-14.864,1.803-29.941,5.954-44.363,12.263
			c-13.613,6.119-25.364,13.204-35.862,21.568C34.583,395.435,0.009,499.157,0,686.833c0.009,259.4,114.335,354.135,119.323,358.16
			c11,8.658,22.755,15.716,36.039,21.568c14.294,6.261,29.349,10.421,44.188,12.23l0.055,0.797l39.059,0.411
			C267.174,1079.971,290.38,1057.588,290.426,1030.072z M238.678,1049.279l-17.38-0.015l-6.793-0.135
			c-10.728-0.181-27.577-2.216-46.758-10.611c-10.841-4.814-20.493-10.595-29.279-17.512
			c-1.083-0.893-107.787-90.82-107.796-334.173C30.668,479.915,73.703,403.719,138.393,352.93
			c8.523-6.782,18.144-12.564,29.261-17.543c19.306-8.428,36.14-10.461,46.837-10.69l24.169-0.119
			c11.605-0.015,21.087,8.578,21.087,19.174v138.234c-0.015,10.593-9.471,19.213-21.102,19.238l-93.31-0.046l-2.943,11.559
			c-1.646,6.435-3.643,13.496-5.859,21.12c-10.317,35.997-24.447,85.262-24.416,153.084
			c-0.018,67.694,14.081,116.898,24.361,152.791c2.229,7.748,4.246,14.841,5.899,21.363l2.958,11.574l93.31-0.015
			c11.614,0.024,21.111,8.664,21.127,19.244l-0.015,138.188C259.742,1040.661,250.285,1049.279,238.678,1049.279z"/>
	</g>
</g>
<rect x="465.914" y="293.884" fill="#010002" width="30.675" height="786.116"/>
</svg>
